<svg width="16" height="15" viewBox="0 0 16 15" fill="none" xmlns="http://www.w3.org/2000/svg">
<path fill-rule="evenodd" clip-rule="evenodd" d="M9.62803 1.13137C10.158 0.911797 10.7259 0.798782 11.2996 0.798782C11.8732 0.798782 12.4412 0.911797 12.9711 1.13137C13.501 1.35094 13.9825 1.67277 14.388 2.07847C14.7936 2.48394 15.1153 2.96532 15.3349 3.49514C15.5544 4.02506 15.6674 4.59305 15.6674 5.16667C15.6674 5.74028 15.5544 6.30827 15.3349 6.83819C15.1153 7.36806 14.7935 7.84949 14.3879 8.25497C14.3878 8.25501 14.3879 8.25493 14.3879 8.25497L8.49453 14.1483C8.22117 14.4217 7.77795 14.4217 7.50458 14.1483L1.61125 8.25497C0.79218 7.4359 0.332031 6.32501 0.332031 5.16667C0.332031 4.00833 0.79218 2.89743 1.61125 2.07836C2.43032 1.25929 3.54122 0.799139 4.69956 0.799139C5.8579 0.799139 6.9688 1.25929 7.78787 2.07836L7.99956 2.29005L8.21113 2.07847C8.2111 2.07851 8.21117 2.07844 8.21113 2.07847C8.61662 1.67283 9.09816 1.35092 9.62803 1.13137ZM13.3978 3.06819C13.1223 2.79256 12.7952 2.57392 12.4352 2.42474C12.0751 2.27556 11.6893 2.19878 11.2996 2.19878C10.9099 2.19878 10.524 2.27556 10.1639 2.42474C9.80392 2.57392 9.47681 2.79256 9.20132 3.06819L8.49453 3.77497C8.22117 4.04834 7.77795 4.04834 7.50458 3.77497L6.79792 3.06831C6.2414 2.51179 5.4866 2.19914 4.69956 2.19914C3.91252 2.19914 3.15772 2.51179 2.6012 3.06831C2.04468 3.62483 1.73203 4.37963 1.73203 5.16667C1.73203 5.9537 2.04468 6.70851 2.6012 7.26502L7.99956 12.6634L13.3979 7.26502C13.6735 6.98953 13.8923 6.66231 14.0415 6.30228C14.1907 5.94226 14.2674 5.55637 14.2674 5.16667C14.2674 4.77696 14.1907 4.39107 14.0415 4.03105C13.8923 3.67103 13.6734 3.34369 13.3978 3.06819Z" fill="#313237"/>
</svg>
